<?xml version="1.0" standalone="no"?><!DOCTYPE svg PUBLIC "-//W3C//DTD SVG 1.1//EN" "http://www.w3.org/Graphics/SVG/1.1/DTD/svg11.dtd"><svg t="1618109835435" class="icon" viewBox="0 0 1024 1024" version="1.1" xmlns="http://www.w3.org/2000/svg" p-id="9068" xmlns:xlink="http://www.w3.org/1999/xlink" width="200" height="200"><defs><style type="text/css"></style></defs><path d="M853.333333 972.8H170.666667c-75.9296 0-119.466667-43.554133-119.466667-119.466667v-169.813333a34.133333 34.133333 0 0 1 68.266667 0V853.333333c0 37.802667 13.397333 51.2 51.2 51.2h682.666666c37.802667 0 51.2-13.397333 51.2-51.2v-169.813333a34.133333 34.133333 0 0 1 68.266667 0V853.333333c0 75.912533-43.554133 119.466667-119.466667 119.466667z" p-id="9069"></path><path d="M512.853333 699.733333h-0.0512a16.861867 16.861867 0 0 1-12.014933-5.000533l-170.666667-170.666667a17.0496 17.0496 0 1 1 24.132267-24.132266l141.533867 141.533866V85.333333a17.066667 17.066667 0 0 1 34.133333 0v556.1344l141.533867-141.533866a17.0496 17.0496 0 1 1 24.132266 24.132266l-170.666666 170.666667a16.9472 16.9472 0 0 1-12.014934 5.000533h-0.0512z" p-id="9070"></path></svg>