<?xml version="1.0" standalone="no"?><!DOCTYPE svg PUBLIC "-//W3C//DTD SVG 1.1//EN" "http://www.w3.org/Graphics/SVG/1.1/DTD/svg11.dtd"><svg t="1618109745556" class="icon" viewBox="0 0 1024 1024" version="1.1" xmlns="http://www.w3.org/2000/svg" p-id="6123" xmlns:xlink="http://www.w3.org/1999/xlink" width="200" height="200"><defs><style type="text/css"></style></defs><path d="M987.428571 109.714286H36.571429c-20.228571 0-36.571429 16.342857-36.571429 36.571428v731.428572c0 20.228571 16.342857 36.571429 36.571429 36.571428h950.857142c20.228571 0 36.571429-16.342857 36.571429-36.571428V146.285714c0-20.228571-16.342857-36.571429-36.571429-36.571428z m-45.714285 126.628571V832H82.285714V236.342857l-31.542857-24.571428 44.914286-57.714286 48.914286 38.057143h734.971428l48.914286-38.057143 44.914286 57.714286-31.657143 24.571428zM879.542857 192L512 477.714286 144.457143 192l-48.914286-38.057143-44.914286 57.714286 31.542858 24.571428 390.4 303.542858a63.988571 63.988571 0 0 0 78.514285 0L941.714286 236.342857l31.542857-24.571428-44.914286-57.714286-48.8 37.942857z" p-id="6124"></path></svg>